<svg width="27" height="11" viewBox="0 0 27 11" fill="none" xmlns="http://www.w3.org/2000/svg">
<path d="M4.24032 10.167C6.63442 10.167 8.05653 8.29472 8.05653 5.12433C8.05653 3.93054 7.82821 2.92594 7.39114 2.14965C6.75837 0.94281 5.66895 0.290466 4.29251 0.290466C2.24415 0.290466 0.795944 1.66691 0.795944 3.59785C0.795944 5.41137 2.10063 6.7291 3.89458 6.7291C4.99704 6.7291 5.89075 6.21375 6.33434 5.32004H6.35391C6.35391 5.32004 6.38001 5.32004 6.38653 5.32004C6.39958 5.32004 6.44524 5.32004 6.44524 5.32004C6.44524 7.47277 5.62981 8.75789 4.25337 8.75789C3.44446 8.75789 2.81821 8.31429 2.60294 7.60324H0.926413C1.20692 9.14929 2.51813 10.167 4.24032 10.167ZM4.29903 5.39179C3.21614 5.39179 2.44637 4.62203 2.44637 3.54566C2.44637 2.49539 3.25528 1.69301 4.30555 1.69301C5.35583 1.69301 6.16473 2.50844 6.16473 3.57176C6.16473 4.62203 5.3754 5.39179 4.29903 5.39179Z" fill="white"/>
<path d="M10.8097 10.0756C11.4294 10.0756 11.8534 9.63203 11.8534 9.04492C11.8534 8.45129 11.4294 8.01422 10.8097 8.01422C10.1965 8.01422 9.76593 8.45129 9.76593 9.04492C9.76593 9.63203 10.1965 10.0756 10.8097 10.0756ZM10.8097 5.18304C11.4294 5.18304 11.8534 4.74597 11.8534 4.15886C11.8534 3.56523 11.4294 3.12816 10.8097 3.12816C10.1965 3.12816 9.76593 3.56523 9.76593 4.15886C9.76593 4.74597 10.1965 5.18304 10.8097 5.18304Z" fill="white"/>
<path d="M17.9596 9.93863H19.5709V8.18383H20.843V6.76172H19.5709V0.52531H17.1964C15.5329 3.03031 14.2087 5.12433 13.3606 6.68344V8.18383H17.9596V9.93863ZM14.9197 6.70301C16.0156 4.77207 16.9942 3.22601 17.8944 1.89523H17.9857V6.80086H14.9197V6.70301Z" fill="white"/>
<path d="M24.4311 9.93863H26.1142V0.52531H24.4377L21.9783 2.2475V3.86531L24.3202 2.2214H24.4311V9.93863Z" fill="white"/>
</svg>
