<svg width="27" height="11" viewBox="0 0 27 11" fill="none" xmlns="http://www.w3.org/2000/svg">
<path d="M4.24027 10.167C6.63438 10.167 8.05648 8.29472 8.05648 5.12433C8.05648 3.93054 7.82816 2.92594 7.39109 2.14965C6.75832 0.94281 5.66891 0.290466 4.29246 0.290466C2.2441 0.290466 0.795898 1.66691 0.795898 3.59785C0.795898 5.41137 2.10059 6.7291 3.89453 6.7291C4.99699 6.7291 5.8907 6.21375 6.3343 5.32004H6.35387C6.35387 5.32004 6.37996 5.32004 6.38648 5.32004C6.39953 5.32004 6.4452 5.32004 6.4452 5.32004C6.4452 7.47277 5.62977 8.75789 4.25332 8.75789C3.44441 8.75789 2.81816 8.31429 2.60289 7.60324H0.926367C1.20687 9.14929 2.51809 10.167 4.24027 10.167ZM4.29898 5.39179C3.21609 5.39179 2.44633 4.62203 2.44633 3.54566C2.44633 2.49539 3.25523 1.69301 4.30551 1.69301C5.35578 1.69301 6.16469 2.50844 6.16469 3.57176C6.16469 4.62203 5.37535 5.39179 4.29898 5.39179Z" fill="white"/>
<path d="M10.8096 10.0756C11.4294 10.0756 11.8534 9.63203 11.8534 9.04492C11.8534 8.45129 11.4294 8.01422 10.8096 8.01422C10.1964 8.01422 9.76589 8.45129 9.76589 9.04492C9.76589 9.63203 10.1964 10.0756 10.8096 10.0756ZM10.8096 5.18304C11.4294 5.18304 11.8534 4.74597 11.8534 4.15886C11.8534 3.56523 11.4294 3.12816 10.8096 3.12816C10.1964 3.12816 9.76589 3.56523 9.76589 4.15886C9.76589 4.74597 10.1964 5.18304 10.8096 5.18304Z" fill="white"/>
<path d="M17.9596 9.93863H19.5709V8.18383H20.8429V6.76172H19.5709V0.52531H17.1963C15.5329 3.03031 14.2086 5.12433 13.3606 6.68344V8.18383H17.9596V9.93863ZM14.9197 6.70301C16.0156 4.77207 16.9941 3.22601 17.8944 1.89523H17.9857V6.80086H14.9197V6.70301Z" fill="white"/>
<path d="M24.4311 9.93863H26.1141V0.52531H24.4376L21.9783 2.2475V3.86531L24.3202 2.2214H24.4311V9.93863Z" fill="white"/>
</svg>
