<svg width="16" height="11" viewBox="0 0 16 11" fill="none" xmlns="http://www.w3.org/2000/svg">
<path fill-rule="evenodd" clip-rule="evenodd" d="M14.8097 0.735107H13.9191C13.4272 0.735107 13.0284 1.13387 13.0284 1.62577V9.34489C13.0284 9.83679 13.4272 10.2356 13.9191 10.2356H14.8097C15.3017 10.2356 15.7004 9.83679 15.7004 9.34489V1.62577C15.7004 1.13387 15.3017 0.735107 14.8097 0.735107ZM9.76264 2.81332H10.6533C11.1452 2.81332 11.544 3.21209 11.544 3.70399V9.34488C11.544 9.83678 11.1452 10.2355 10.6533 10.2355H9.76264C9.27074 10.2355 8.87197 9.83678 8.87197 9.34488V3.70399C8.87197 3.21209 9.27074 2.81332 9.76264 2.81332ZM6.49685 4.89154H5.60619C5.11429 4.89154 4.71552 5.2903 4.71552 5.78221V9.34487C4.71552 9.83677 5.11429 10.2355 5.60619 10.2355H6.49685C6.98876 10.2355 7.38752 9.83677 7.38752 9.34487V5.78221C7.38752 5.2903 6.98876 4.89154 6.49685 4.89154ZM2.34042 6.67286H1.44975C0.957847 6.67286 0.559082 7.07163 0.559082 7.56353V9.34486C0.559082 9.83677 0.957847 10.2355 1.44975 10.2355H2.34042C2.83232 10.2355 3.23108 9.83677 3.23108 9.34486V7.56353C3.23108 7.07163 2.83232 6.67286 2.34042 6.67286Z" fill="#FFF9FC"/>
</svg>
