<svg width="16" height="11" viewBox="0 0 16 11" fill="none" xmlns="http://www.w3.org/2000/svg">
<path fill-rule="evenodd" clip-rule="evenodd" d="M14.8098 0.735107H13.9191C13.4272 0.735107 13.0284 1.13387 13.0284 1.62577V9.34489C13.0284 9.83679 13.4272 10.2356 13.9191 10.2356H14.8098C15.3017 10.2356 15.7004 9.83679 15.7004 9.34489V1.62577C15.7004 1.13387 15.3017 0.735107 14.8098 0.735107ZM9.76266 2.81332H10.6533C11.1452 2.81332 11.544 3.21209 11.544 3.70399V9.34488C11.544 9.83678 11.1452 10.2355 10.6533 10.2355H9.76266C9.27075 10.2355 8.87199 9.83678 8.87199 9.34488V3.70399C8.87199 3.21209 9.27075 2.81332 9.76266 2.81332ZM6.49687 4.89154H5.6062C5.1143 4.89154 4.71554 5.2903 4.71554 5.78221V9.34487C4.71554 9.83677 5.1143 10.2355 5.6062 10.2355H6.49687C6.98877 10.2355 7.38754 9.83677 7.38754 9.34487V5.78221C7.38754 5.2903 6.98877 4.89154 6.49687 4.89154ZM2.34043 6.67286H1.44976C0.957862 6.67286 0.559097 7.07163 0.559097 7.56353V9.34486C0.559097 9.83677 0.957862 10.2355 1.44976 10.2355H2.34043C2.83233 10.2355 3.2311 9.83677 3.2311 9.34486V7.56353C3.2311 7.07163 2.83233 6.67286 2.34043 6.67286Z" fill="#FFF9FC"/>
</svg>
