<svg width="16" height="11" viewBox="0 0 16 11" fill="none" xmlns="http://www.w3.org/2000/svg">
<path fill-rule="evenodd" clip-rule="evenodd" d="M14.8098 0.735107H13.9191C13.4272 0.735107 13.0284 1.13387 13.0284 1.62577V9.34489C13.0284 9.83679 13.4272 10.2356 13.9191 10.2356H14.8098C15.3017 10.2356 15.7004 9.83679 15.7004 9.34489V1.62577C15.7004 1.13387 15.3017 0.735107 14.8098 0.735107ZM9.76267 2.81332H10.6533C11.1452 2.81332 11.544 3.21209 11.544 3.70399V9.34488C11.544 9.83678 11.1452 10.2355 10.6533 10.2355H9.76267C9.27077 10.2355 8.87201 9.83678 8.87201 9.34488V3.70399C8.87201 3.21209 9.27077 2.81332 9.76267 2.81332ZM6.49689 4.89154H5.60622C5.11432 4.89154 4.71555 5.2903 4.71555 5.78221V9.34487C4.71555 9.83677 5.11432 10.2355 5.60622 10.2355H6.49689C6.98879 10.2355 7.38755 9.83677 7.38755 9.34487V5.78221C7.38755 5.2903 6.98879 4.89154 6.49689 4.89154ZM2.34045 6.67286H1.44978C0.957878 6.67286 0.559113 7.07163 0.559113 7.56353V9.34486C0.559113 9.83677 0.957878 10.2355 1.44978 10.2355H2.34045C2.83235 10.2355 3.23111 9.83677 3.23111 9.34486V7.56353C3.23111 7.07163 2.83235 6.67286 2.34045 6.67286Z" fill="#FFF9FC"/>
</svg>
