<svg width="372" height="922" viewBox="0 0 372 922" fill="none" xmlns="http://www.w3.org/2000/svg">
<mask id="path-1-inside-1" fill="white">
<path fill-rule="evenodd" clip-rule="evenodd" d="M189.123 11C189.123 4.92487 184.198 0 178.123 0H11C4.92487 0 0 4.92488 0 11V54.3201V866.798V910.118C0 916.193 4.92486 921.118 11 921.118H361C367.075 921.118 372 916.193 372 910.118V65.3201C372 59.245 367.075 54.3201 361 54.3201H200.123C194.048 54.3201 189.123 49.3952 189.123 43.3201V11Z"/>
</mask>
<path d="M11 1H178.123V-1H11V1ZM1 54.3201V11H-1V54.3201H1ZM1 866.798V54.3201H-1V866.798H1ZM1 910.118V866.798H-1V910.118H1ZM361 920.118H11V922.118H361V920.118ZM371 65.3201V910.118H373V65.3201H371ZM200.123 55.3201H361V53.3201H200.123V55.3201ZM188.123 11V43.3201H190.123V11H188.123ZM200.123 53.3201C194.6 53.3201 190.123 48.843 190.123 43.3201H188.123C188.123 49.9475 193.496 55.3201 200.123 55.3201V53.3201ZM-1 910.118C-1 916.745 4.37257 922.118 11 922.118V920.118C5.47714 920.118 1 915.641 1 910.118H-1ZM373 65.3201C373 58.6927 367.627 53.3201 361 53.3201V55.3201C366.523 55.3201 371 59.7973 371 65.3201H373ZM178.123 1C183.646 1 188.123 5.47715 188.123 11H190.123C190.123 4.37258 184.751 -1 178.123 -1V1ZM361 922.118C367.627 922.118 373 916.745 373 910.118H371C371 915.641 366.523 920.118 361 920.118V922.118ZM11 -1C4.37258 -1 -1 4.3726 -1 11H1C1 5.47716 5.47715 1 11 1V-1Z" fill="#FFF9FC" mask="url(#path-1-inside-1)"/>
</svg>
