<svg width="372" height="922" viewBox="0 0 372 922" fill="none" xmlns="http://www.w3.org/2000/svg">
<mask id="path-1-inside-1" fill="white">
<path fill-rule="evenodd" clip-rule="evenodd" d="M182.877 11C182.877 4.92487 187.802 0 193.877 0H361C367.075 0 372 4.92488 372 11V54.3201V866.798V910.118C372 916.193 367.075 921.118 361 921.118H11C4.92487 921.118 0 916.193 0 910.118V65.3201C0 59.245 4.92487 54.3201 11 54.3201H171.877C177.952 54.3201 182.877 49.3952 182.877 43.3201V11Z"/>
</mask>
<path d="M361 1H193.877V-1H361V1ZM371 54.3201V11H373V54.3201H371ZM371 866.798V54.3201H373V866.798H371ZM371 910.118V866.798H373V910.118H371ZM11 920.118H361V922.118H11V920.118ZM1 65.3201V910.118H-1V65.3201H1ZM171.877 55.3201H11V53.3201H171.877V55.3201ZM183.877 11V43.3201H181.877V11H183.877ZM171.877 53.3201C177.4 53.3201 181.877 48.843 181.877 43.3201H183.877C183.877 49.9475 178.504 55.3201 171.877 55.3201V53.3201ZM373 910.118C373 916.745 367.627 922.118 361 922.118V920.118C366.523 920.118 371 915.641 371 910.118H373ZM-1 65.3201C-1 58.6927 4.37256 53.3201 11 53.3201V55.3201C5.47714 55.3201 1 59.7973 1 65.3201H-1ZM193.877 1C188.354 1 183.877 5.47715 183.877 11H181.877C181.877 4.37258 187.249 -1 193.877 -1V1ZM11 922.118C4.37259 922.118 -1 916.745 -1 910.118H1C1 915.641 5.47714 920.118 11 920.118V922.118ZM361 -1C367.627 -1 373 4.3726 373 11H371C371 5.47716 366.523 1 361 1V-1Z" fill="#FFF9FC" mask="url(#path-1-inside-1)"/>
</svg>
