<svg width="14" height="11" viewBox="0 0 14 11" fill="none" xmlns="http://www.w3.org/2000/svg">
<path fill-rule="evenodd" clip-rule="evenodd" d="M6.97965 2.46419C8.95327 2.46428 10.8514 3.22263 12.2818 4.58249C12.3895 4.68748 12.5617 4.68616 12.6677 4.57952L13.6974 3.54041C13.7511 3.48633 13.781 3.41307 13.7806 3.33685C13.7801 3.26062 13.7493 3.18772 13.695 3.13427C9.94073 -0.463621 4.01797 -0.463621 0.263725 3.13427C0.209342 3.18768 0.178486 3.26056 0.177985 3.33679C0.177483 3.41301 0.207378 3.48629 0.261053 3.54041L1.29096 4.57952C1.39698 4.68632 1.56927 4.68764 1.67692 4.58249C3.10746 3.22254 5.00583 2.46419 6.97965 2.46419ZM6.97965 5.84484C8.06403 5.84477 9.10971 6.24783 9.91351 6.97569C10.0222 7.07899 10.1935 7.07675 10.2995 6.97064L11.3279 5.93153C11.382 5.87702 11.4121 5.80308 11.4113 5.72625C11.4105 5.64942 11.379 5.5761 11.3237 5.52271C8.876 3.24583 5.08538 3.24583 2.63765 5.52271C2.58236 5.5761 2.55081 5.64945 2.55009 5.72631C2.54936 5.80317 2.57952 5.8771 2.63379 5.93153L3.66192 6.97064C3.76789 7.07675 3.93915 7.07899 4.04787 6.97569C4.85114 6.24831 5.89599 5.84529 6.97965 5.84484ZM9.03975 8.11944C9.04132 8.19649 9.01103 8.27077 8.95603 8.32475L7.17707 10.12C7.12493 10.1728 7.05383 10.2025 6.97964 10.2025C6.90546 10.2025 6.83436 10.1728 6.78221 10.12L5.00296 8.32475C4.94799 8.27073 4.91776 8.19642 4.91939 8.11937C4.92102 8.04232 4.95437 7.96936 5.01157 7.91772C6.14768 6.95679 7.81161 6.95679 8.94772 7.91772C9.00488 7.96941 9.03818 8.04239 9.03975 8.11944Z" fill="#FFF9FC"/>
</svg>
