<svg width="14" height="11" viewBox="0 0 14 11" fill="none" xmlns="http://www.w3.org/2000/svg">
<path fill-rule="evenodd" clip-rule="evenodd" d="M6.97956 2.46419C8.95318 2.46428 10.8513 3.22263 12.2817 4.58249C12.3894 4.68748 12.5616 4.68616 12.6677 4.57952L13.6973 3.54041C13.751 3.48633 13.7809 3.41307 13.7805 3.33685C13.78 3.26062 13.7492 3.18772 13.6949 3.13427C9.94064 -0.463621 4.01788 -0.463621 0.263634 3.13427C0.209251 3.18768 0.178395 3.26056 0.177893 3.33679C0.177392 3.41301 0.207286 3.48629 0.260962 3.54041L1.29087 4.57952C1.39688 4.68632 1.56918 4.68764 1.67682 4.58249C3.10737 3.22254 5.00574 2.46419 6.97956 2.46419ZM6.97956 5.84484C8.06393 5.84477 9.10961 6.24783 9.91341 6.97569C10.0221 7.07899 10.1934 7.07675 10.2994 6.97064L11.3278 5.93153C11.382 5.87702 11.412 5.80308 11.4112 5.72625C11.4104 5.64942 11.3789 5.5761 11.3236 5.52271C8.87591 3.24583 5.08529 3.24583 2.63756 5.52271C2.58227 5.5761 2.55072 5.64945 2.55 5.72631C2.54927 5.80317 2.57943 5.8771 2.6337 5.93153L3.66182 6.97064C3.7678 7.07675 3.93906 7.07899 4.04778 6.97569C4.85105 6.24831 5.8959 5.84529 6.97956 5.84484ZM9.03966 8.11944C9.04123 8.19649 9.01094 8.27077 8.95594 8.32475L7.17698 10.12C7.12483 10.1728 7.05374 10.2025 6.97955 10.2025C6.90537 10.2025 6.83427 10.1728 6.78212 10.12L5.00287 8.32475C4.9479 8.27073 4.91767 8.19642 4.91929 8.11937C4.92092 8.04232 4.95428 7.96936 5.01148 7.91772C6.14758 6.95679 7.81152 6.95679 8.94763 7.91772C9.00479 7.96941 9.03808 8.04239 9.03966 8.11944Z" fill="#FFF9FC"/>
</svg>
