<svg width="14" height="11" viewBox="0 0 14 11" fill="none" xmlns="http://www.w3.org/2000/svg">
<path fill-rule="evenodd" clip-rule="evenodd" d="M6.97953 2.46419C8.95315 2.46428 10.8513 3.22262 12.2817 4.58249C12.3894 4.68748 12.5615 4.68616 12.6676 4.57952L13.6972 3.54041C13.7509 3.48633 13.7809 3.41307 13.7804 3.33685C13.78 3.26062 13.7492 3.18772 13.6949 3.13427C9.94061 -0.463621 4.01785 -0.463621 0.263603 3.13427C0.20922 3.18768 0.178364 3.26056 0.177863 3.33679C0.177361 3.41301 0.207256 3.48629 0.260931 3.54041L1.29084 4.57952C1.39685 4.68632 1.56915 4.68764 1.67679 4.58249C3.10734 3.22254 5.00571 2.46419 6.97953 2.46419ZM6.97953 5.84484C8.06391 5.84477 9.10959 6.24782 9.91339 6.97569C10.0221 7.07899 10.1934 7.07675 10.2993 6.97064L11.3278 5.93153C11.3819 5.87702 11.412 5.80308 11.4112 5.72625C11.4104 5.64942 11.3789 5.5761 11.3236 5.52271C8.87588 3.24583 5.08526 3.24583 2.63753 5.52271C2.58224 5.5761 2.5507 5.64945 2.54997 5.72631C2.54924 5.80317 2.5794 5.8771 2.63367 5.93153L3.6618 6.97064C3.76778 7.07675 3.93904 7.07899 4.04775 6.97569C4.85102 6.24831 5.89587 5.84529 6.97953 5.84484ZM9.03962 8.11944C9.04119 8.19649 9.0109 8.27077 8.9559 8.32475L7.17694 10.12C7.12479 10.1728 7.05369 10.2025 6.97951 10.2025C6.90532 10.2025 6.83423 10.1728 6.78208 10.12L5.00282 8.32475C4.94786 8.27073 4.91762 8.19642 4.91925 8.11937C4.92088 8.04233 4.95423 7.96936 5.01143 7.91772C6.14754 6.95679 7.81148 6.95679 8.94759 7.91772C9.00475 7.96941 9.03804 8.04239 9.03962 8.11944Z" fill="#FFF9FC"/>
</svg>
