<svg width="13" height="13" viewBox="0 0 13 13" fill="none" xmlns="http://www.w3.org/2000/svg">
<path fill-rule="evenodd" clip-rule="evenodd" d="M12.6255 0.625597C12.153 0.153117 11.3869 0.153181 10.9143 0.625738L6.92336 4.61669L3.00878 0.70211C2.5363 0.229631 1.7702 0.229694 1.29764 0.702251C0.825084 1.17481 0.825021 1.94091 1.2975 2.41339L5.21208 6.32797L1.22113 10.3189C0.748569 10.7915 0.748506 11.5576 1.22099 12.0301C1.69347 12.5026 2.45957 12.5025 2.93213 12.0299L6.92308 8.03898L10.8377 11.9535C11.3101 12.426 12.0762 12.426 12.5488 11.9534C13.0214 11.4809 13.0214 10.7147 12.5489 10.2423L8.63436 6.32769L12.6253 2.33674C13.0979 1.86418 13.0979 1.09808 12.6255 0.625597Z" fill="white"/>
</svg>
